<?xml version="1.0" encoding="utf-8"?>
<!-- Generator: Adobe Illustrator 24.3.0, SVG Export Plug-In . SVG Version: 6.00 Build 0)  -->
<svg version="1.1" id="Слой_1" xmlns="http://www.w3.org/2000/svg" xmlns:xlink="http://www.w3.org/1999/xlink" x="0px" y="0px"
	 viewBox="0 0 335.3 297.6" style="enable-background:new 0 0 335.3 297.6;" xml:space="preserve">
<style type="text/css">
	.st0{fill:#7360F2;}
	.st1{fill:none;}
	.st2{fill:none;stroke:#7360F2;stroke-width:0.84;stroke-linecap:round;stroke-linejoin:round;}
</style>
<g id="Logos">
	<path class="st0" d="M106.9,155.3l-6.4-15.8c-0.1-0.2-0.2-0.4-0.2-0.6c0-0.2-0.1-0.5-0.1-0.7c0-0.6,0.2-1.2,0.7-1.7
		c0.5-0.4,1.1-0.7,1.8-0.7c0.5,0,0.9,0.2,1.3,0.5c0.4,0.5,0.7,1,0.9,1.6l4.3,11.7l4.2-11.5c0.2-0.6,0.5-1.2,0.9-1.7
		c0.4-0.3,0.9-0.5,1.4-0.5c0.6,0,1.2,0.2,1.7,0.6c0.4,0.4,0.6,1,0.6,1.6c0,0.3,0,0.5-0.1,0.8c-0.1,0.3-0.1,0.6-0.2,0.8l-6.2,15.6
		c-0.2,0.6-0.5,1.1-1,1.5c-0.4,0.3-0.9,0.5-1.4,0.4c-0.5,0-1-0.1-1.3-0.4C107.4,156.3,107,155.8,106.9,155.3z"/>
	<path class="st0" d="M123.6,153.9c0.1,0.8-0.1,1.7-0.5,2.4c-0.4,0.5-1,0.8-1.6,0.8c-0.7,0-1.3-0.3-1.7-0.8
		c-0.4-0.7-0.6-1.6-0.5-2.4v-8.7c-0.1-0.8,0.1-1.7,0.5-2.4c0.4-0.5,1-0.8,1.7-0.8c0.6,0,1.3,0.2,1.6,0.8c0.4,0.7,0.6,1.6,0.5,2.4
		V153.9z"/>
	<path class="st0" d="M130.2,142.1c0.5-0.4,1.1-0.8,1.7-1c0.6-0.2,1.3-0.3,2-0.3c2,0,3.8,0.9,5,2.4c1.4,1.7,2.1,3.8,2.1,5.9
		c0,2.1-0.7,4.1-2.1,5.7c-1.2,1.5-3.1,2.4-5,2.4c-0.7,0-1.4-0.1-2.1-0.4c-0.6-0.3-1.2-0.7-1.6-1.2c-0.2,0.4-0.6,0.8-1,1.1
		c-0.4,0.2-0.8,0.4-1.2,0.4c-0.7,0-1.3-0.3-1.7-0.8c-0.4-0.8-0.6-1.7-0.6-2.5v-14.6c-0.1-0.9,0.1-1.8,0.6-2.5c0.8-1,2.2-1.1,3.2-0.3
		c0.1,0.1,0.2,0.2,0.3,0.3c0.4,0.8,0.6,1.7,0.6,2.5L130.2,142.1z M129.9,149c-0.1,1.1,0.3,2.2,0.9,3.1c1,1.3,2.9,1.6,4.2,0.6
		c0.2-0.2,0.4-0.4,0.6-0.6c0.6-0.9,1-1.9,0.9-3c0-1.1-0.3-2.2-0.9-3.1c-1-1.3-2.9-1.6-4.2-0.6c-0.2,0.2-0.4,0.4-0.6,0.6
		C130.1,146.8,129.8,147.9,129.9,149L129.9,149z"/>
	<path class="st0" d="M146.2,150.3c0.2,0.8,0.6,1.5,1.3,2c0.7,0.5,1.6,0.8,2.4,0.7c1,0,2-0.3,2.9-0.7c0.6-0.3,1.3-0.6,2-0.7
		c0.5,0,1,0.2,1.3,0.5c0.3,0.3,0.5,0.8,0.5,1.3c0,1-0.7,1.9-2.1,2.7c-1.5,0.8-3.2,1.2-4.9,1.2c-2.1,0.1-4.2-0.8-5.7-2.3
		c-1.5-1.6-2.4-3.7-2.3-5.8c-0.1-2.2,0.7-4.3,2.2-5.9c2.9-3.1,7.8-3.2,10.9-0.2c0,0,0,0,0.1,0.1c1.4,1.4,2.2,3.4,2.2,5.4
		c0.1,0.5-0.1,1.1-0.5,1.5c-0.5,0.3-1.2,0.5-1.8,0.4L146.2,150.3z M146,147.6h6.8c0-0.9-0.4-1.7-1-2.3c-0.6-0.6-1.4-0.9-2.2-0.9
		c-0.8,0-1.7,0.3-2.3,0.8C146.6,145.8,146.1,146.6,146,147.6L146,147.6z"/>
	<path class="st0" d="M158.3,153.6v-9.3c-0.1-0.9,0.1-1.8,0.6-2.5c0.4-0.6,1.1-0.9,1.7-0.8c0.4,0,0.9,0.1,1.2,0.4
		c0.4,0.3,0.8,0.7,1,1.1c0.4-0.5,0.9-0.9,1.5-1.2c0.5-0.3,1.1-0.4,1.6-0.4c0.6,0,1.2,0.2,1.7,0.7c0.4,0.4,0.7,1,0.7,1.6
		c0,0.9-0.8,1.7-2.5,2.3c-0.6,0.2-1.1,0.4-1.4,0.5c-0.5,0.2-0.9,0.5-1.2,0.9c-0.2,0.6-0.3,1.2-0.3,1.8v4.8c0.1,0.9-0.1,1.8-0.6,2.5
		c-0.4,0.6-1.1,0.9-1.7,0.8c-0.7,0.1-1.3-0.3-1.7-0.8C158.4,155.4,158.2,154.5,158.3,153.6z"/>
	<path class="st0" d="M119.1,138.1c0-0.6,0.3-1.3,0.7-1.7c0.5-0.5,1.1-0.7,1.7-0.7c0.6,0,1.2,0.2,1.7,0.7c0.5,0.4,0.7,1.1,0.7,1.7
		c0,1.3-1.1,2.4-2.4,2.4c0,0,0,0,0,0c-0.6,0-1.3-0.2-1.7-0.7C119.4,139.4,119.1,138.8,119.1,138.1z"/>
	<rect x="92.3" y="134.8" class="st1" width="88.3" height="25"/>
	<path class="st0" d="M85.6,134.2c-0.8-0.8-4.1-3.2-11.5-3.2c0,0-8.7-0.5-13,3.4c-2.4,2.4-3.2,5.8-3.3,10.1s-0.2,12.3,7.6,14.5l0,0
		v3.3c0,0,0,1.4,0.8,1.6c1.1,0.3,1.7-0.7,2.7-1.8c0.6-0.6,1.3-1.5,1.9-2.2c3.3,0.3,6.6,0.1,9.8-0.7c1.1-0.4,7.1-1.1,8.1-9.2
		C89.8,141.8,88.3,136.6,85.6,134.2z M86.5,149.5c-0.8,6.7-5.8,7.1-6.7,7.4c-2.8,0.7-5.6,0.9-8.5,0.7c0,0-3.4,4-4.4,5.1
		c-0.1,0.1-0.3,0.2-0.5,0.2c-0.2-0.1-0.2-0.3-0.2-0.6s0-5.5,0-5.5l0,0c-6.6-1.8-6.2-8.7-6.1-12.2s0.8-6.5,2.8-8.5
		c3.6-3.2,11-2.8,11-2.8c6.2,0,9.2,1.9,9.9,2.5C86.2,137.9,87.3,142.6,86.5,149.5L86.5,149.5z"/>
	<path class="st2" d="M77.1,144.3c0.1-1.3-0.9-2.5-2.2-2.6c-0.1,0-0.2,0-0.3,0"/>
	<path class="st2" d="M79.2,145c0.1-1.4-0.4-2.8-1.3-3.8c-1-1-2.4-1.6-3.9-1.7"/>
	<path class="st2" d="M81.4,145.9c0.1-2.3-0.8-4.6-2.4-6.3c-1.6-1.5-3.7-2.4-5.8-2.3"/>
	<path class="st0" d="M74.7,149.9c0.3,0,0.7-0.1,0.9-0.3l0.6-0.8c0.4-0.5,1.2-0.6,1.7-0.2c0.5,0.3,1,0.6,1.5,1
		c0.5,0.4,1.4,1.1,1.4,1.1c0.5,0.4,0.6,1,0.2,1.5l0,0c-0.3,0.6-0.8,1.1-1.3,1.6l0,0c-0.4,0.3-0.8,0.6-1.3,0.6c-0.1,0-0.1,0-0.2,0
		c-0.2,0-0.4,0-0.6-0.1l0,0c-1.2-0.4-2.4-1-3.6-1.7c-1.1-0.6-2.1-1.2-3-2c-0.5-0.4-0.9-0.8-1.3-1.2l0,0l0,0l0,0l0,0h-0.1
		c-0.4-0.4-0.8-0.9-1.2-1.4c-0.7-0.9-1.4-1.9-2-3c-0.7-1.1-1.2-2.3-1.7-3.6l0,0c-0.1-0.2-0.1-0.4-0.1-0.6c0-0.1,0-0.1,0-0.2
		c0.1-0.5,0.3-0.9,0.6-1.3l0,0c0.4-0.6,0.9-1.1,1.4-1.5l0,0c0.5-0.3,1.2-0.2,1.6,0.2c0,0,0.8,1,1.1,1.4s0.8,1.1,1,1.5
		c0.3,0.6,0.2,1.3-0.2,1.7l-0.8,0.6c-0.2,0.2-0.4,0.6-0.3,0.9C70,147.1,72.1,149.1,74.7,149.9z"/>
</g>
</svg>
